<svg xmlns="http://www.w3.org/2000/svg" xmlns:xlink="http://www.w3.org/1999/xlink" width="500" zoomAndPan="magnify" viewBox="0 0 375 374.999991" height="500" preserveAspectRatio="xMidYMid meet" version="1.0"><defs><g/><clipPath id="39497aba67"><path d="M 48.0625 121 L 327.0625 121 L 327.0625 239 L 48.0625 239 Z M 48.0625 121 " clip-rule="nonzero"/></clipPath></defs><g clip-path="url(#39497aba67)"><path fill="#ffffff" d="M 164.886719 179.632812 C 164.886719 211.960938 138.773438 238.101562 106.476562 238.101562 C 74.175781 238.101562 48.0625 211.960938 48.0625 179.632812 C 48.0625 147.304688 74.175781 121.164062 106.476562 121.164062 C 138.773438 121.164062 164.886719 147.304688 164.886719 179.632812 Z M 268.652344 121.164062 C 236.355469 121.164062 210.242188 147.304688 210.242188 179.632812 C 210.242188 211.960938 236.355469 238.101562 268.652344 238.101562 C 300.949219 238.101562 327.0625 211.960938 327.0625 179.632812 C 327.0625 147.304688 300.949219 121.164062 268.652344 121.164062 Z M 268.652344 121.164062 " fill-opacity="1" fill-rule="nonzero"/></g><path fill="#000000" d="M 213.675781 246.699219 C 195.464844 252.203125 175.539062 251.855469 157.671875 245.667969 C 154.234375 244.636719 151.828125 240.851562 152.859375 237.070312 C 153.890625 233.628906 157.671875 231.222656 161.449219 232.253906 C 177.253906 237.757812 194.089844 238.101562 210.242188 233.285156 C 218.832031 230.878906 222.265625 243.945312 213.675781 246.699219 Z M 162.480469 170.347656 C 162.480469 148.679688 145.300781 131.480469 123.65625 131.480469 C 102.351562 131.480469 84.828125 149.023438 84.828125 170.347656 C 84.828125 191.667969 102.351562 209.210938 123.65625 209.210938 C 145.300781 209.210938 162.480469 191.667969 162.480469 170.347656 Z M 286.519531 131.480469 C 265.214844 131.480469 247.691406 149.023438 247.691406 170.347656 C 247.691406 191.667969 265.214844 209.210938 286.519531 209.210938 C 307.820312 209.210938 325.34375 191.667969 325.34375 170.347656 C 325.34375 149.023438 307.820312 131.480469 286.519531 131.480469 Z M 130.183594 73.359375 C 133.960938 73.703125 137.054688 69.917969 137.054688 66.480469 C 137.054688 62.695312 133.960938 59.945312 130.183594 59.601562 C 110.253906 57.882812 90.324219 62.351562 72.457031 71.636719 C 64.554688 75.765625 71.429688 87.804688 79.332031 83.675781 C 95.136719 75.421875 112.660156 71.980469 130.183594 73.359375 Z M 297.859375 83.675781 C 305.761719 87.804688 312.632812 76.109375 304.730469 71.636719 C 287.207031 62.351562 266.933594 57.882812 247.347656 59.601562 C 243.570312 59.945312 240.476562 62.695312 240.476562 66.480469 C 240.476562 69.917969 243.570312 73.703125 247.347656 73.359375 C 264.871094 71.980469 282.394531 75.421875 297.859375 83.675781 Z M 297.859375 83.675781 " fill-opacity="1" fill-rule="nonzero"/><g fill="#004aad" fill-opacity="1"><g transform="translate(42.15348, 296.35579)"><g><path d="M 17.296875 -11.390625 C 16.671875 -11.460938 15.851562 -11.5 14.84375 -11.5 L 8.84375 -11.5 L 8.84375 0 L 3.40625 0 L 3.40625 -26.5 C 3.757812 -26.476562 4.171875 -26.457031 4.640625 -26.4375 L 6.109375 -26.40625 C 7.109375 -26.375 8.148438 -26.359375 9.234375 -26.359375 C 12.484375 -26.359375 15.585938 -26.410156 18.546875 -26.515625 C 18.398438 -25.359375 18.328125 -23.804688 18.328125 -21.859375 C 18.328125 -21.648438 18.34375 -21.492188 18.375 -21.390625 L 18.328125 -21.328125 C 17.628906 -21.523438 16.65625 -21.625 15.40625 -21.625 L 8.84375 -21.625 L 8.84375 -16.171875 L 14.625 -16.171875 C 16.082031 -16.171875 16.957031 -16.210938 17.25 -16.296875 Z M 17.296875 -11.390625 "/></g></g></g><g fill="#004aad" fill-opacity="1"><g transform="translate(62.409844, 296.35579)"><g><path d="M 5.328125 0.15625 C 4.191406 0.0507812 2.863281 0 1.34375 0 L -0.21875 0 L 8.40625 -24.15625 C 8.789062 -25.238281 8.984375 -25.867188 8.984375 -26.046875 C 8.984375 -26.234375 8.972656 -26.34375 8.953125 -26.375 L 8.984375 -26.421875 C 9.835938 -26.378906 10.75 -26.359375 11.71875 -26.359375 C 12.507812 -26.359375 13.457031 -26.375 14.5625 -26.40625 L 14.59375 -26.359375 C 14.5625 -26.304688 14.546875 -26.234375 14.546875 -26.140625 C 14.546875 -25.890625 14.742188 -25.222656 15.140625 -24.140625 L 23.9375 0.0625 C 23.675781 0.0507812 23.367188 0.046875 23.015625 0.046875 C 23.015625 0.046875 22.671875 0.03125 21.984375 0 C 21.648438 0 21.351562 0 21.09375 0 L 18.015625 0 L 16.15625 -5.703125 L 7.1875 -5.703125 Z M 14.609375 -10.46875 L 11.609375 -19.6875 L 8.703125 -10.46875 Z M 14.609375 -10.46875 "/></g></g></g><g fill="#004aad" fill-opacity="1"><g transform="translate(86.134764, 296.35579)"><g><path d="M 15.21875 -26.859375 C 17.6875 -26.859375 19.796875 -26.425781 21.546875 -25.5625 L 21.546875 -19.5 L 21.5 -19.46875 C 20.757812 -20.601562 19.203125 -21.351562 16.828125 -21.71875 C 16.128906 -21.84375 15.242188 -21.90625 14.171875 -21.90625 C 13.097656 -21.90625 12.046875 -21.703125 11.015625 -21.296875 C 9.984375 -20.890625 9.140625 -20.316406 8.484375 -19.578125 C 7.203125 -18.140625 6.5625 -16.085938 6.5625 -13.421875 C 6.5625 -10.316406 7.375 -8.003906 9 -6.484375 C 10.34375 -5.210938 12.125 -4.578125 14.34375 -4.578125 C 16.851562 -4.578125 18.890625 -5.113281 20.453125 -6.1875 C 21.023438 -6.570312 21.507812 -7.046875 21.90625 -7.609375 L 21.96875 -7.578125 L 21.96875 -2.015625 C 19.9375 -0.335938 17.210938 0.5 13.796875 0.5 C 9.765625 0.5 6.609375 -0.78125 4.328125 -3.34375 C 2.128906 -5.789062 1.03125 -9.03125 1.03125 -13.0625 C 1.03125 -17.332031 2.234375 -20.695312 4.640625 -23.15625 C 7.066406 -25.625 10.59375 -26.859375 15.21875 -26.859375 Z M 15.21875 -26.859375 "/></g></g></g><g fill="#004aad" fill-opacity="1"><g transform="translate(109.6813, 296.35579)"><g><path d="M 16.671875 -4.75 C 17.492188 -4.75 18.0625 -4.832031 18.375 -5 L 18.453125 -4.96875 L 18.25 0 L 3.40625 0 L 3.40625 -26.5 C 3.757812 -26.476562 4.15625 -26.457031 4.59375 -26.4375 L 5.984375 -26.40625 C 6.910156 -26.375 7.914062 -26.359375 9 -26.359375 C 12.019531 -26.359375 15.015625 -26.410156 17.984375 -26.515625 C 17.835938 -25.359375 17.765625 -23.804688 17.765625 -21.859375 C 17.765625 -21.648438 17.773438 -21.492188 17.796875 -21.390625 L 17.765625 -21.328125 C 17.078125 -21.523438 16.097656 -21.625 14.828125 -21.625 L 8.578125 -21.625 L 8.578125 -16.578125 L 13.28125 -16.578125 C 14.726562 -16.578125 15.597656 -16.613281 15.890625 -16.6875 L 15.953125 -11.796875 C 15.316406 -11.859375 14.5 -11.890625 13.5 -11.890625 L 8.578125 -11.890625 L 8.578125 -4.75 Z M 16.671875 -4.75 "/></g></g></g><g fill="#ffffff" fill-opacity="1"><g transform="translate(130.006185, 296.35579)"><g><path d="M 9.828125 0.5 C 7.691406 0.5 5.675781 0.328125 3.78125 -0.015625 L 3.78125 -26.546875 C 5.53125 -26.753906 7.554688 -26.859375 9.859375 -26.859375 C 12.160156 -26.859375 14.242188 -26.539062 16.109375 -25.90625 C 17.984375 -25.28125 19.550781 -24.390625 20.8125 -23.234375 C 23.351562 -20.898438 24.625 -17.640625 24.625 -13.453125 C 24.625 -8.765625 23.207031 -5.207031 20.375 -2.78125 C 17.84375 -0.59375 14.328125 0.5 9.828125 0.5 Z M 8.9375 -4.34375 C 9.800781 -4.1875 10.660156 -4.109375 11.515625 -4.109375 C 12.367188 -4.109375 13.289062 -4.273438 14.28125 -4.609375 C 15.28125 -4.941406 16.144531 -5.46875 16.875 -6.1875 C 18.425781 -7.6875 19.203125 -9.878906 19.203125 -12.765625 C 19.203125 -17.492188 17.476562 -20.398438 14.03125 -21.484375 C 12.894531 -21.835938 11.582031 -22.015625 10.09375 -22.015625 L 9.546875 -22.015625 C 9.347656 -22.015625 9.144531 -22.007812 8.9375 -22 Z M 8.9375 -4.34375 "/></g></g></g><g fill="#ffffff" fill-opacity="1"><g transform="translate(157.041097, 296.35579)"><g><path d="M 16.671875 -4.75 C 17.492188 -4.75 18.0625 -4.832031 18.375 -5 L 18.453125 -4.96875 L 18.25 0 L 3.40625 0 L 3.40625 -26.5 C 3.757812 -26.476562 4.15625 -26.457031 4.59375 -26.4375 L 5.984375 -26.40625 C 6.910156 -26.375 7.914062 -26.359375 9 -26.359375 C 12.019531 -26.359375 15.015625 -26.410156 17.984375 -26.515625 C 17.835938 -25.359375 17.765625 -23.804688 17.765625 -21.859375 C 17.765625 -21.648438 17.773438 -21.492188 17.796875 -21.390625 L 17.765625 -21.328125 C 17.078125 -21.523438 16.097656 -21.625 14.828125 -21.625 L 8.578125 -21.625 L 8.578125 -16.578125 L 13.28125 -16.578125 C 14.726562 -16.578125 15.597656 -16.613281 15.890625 -16.6875 L 15.953125 -11.796875 C 15.316406 -11.859375 14.5 -11.890625 13.5 -11.890625 L 8.578125 -11.890625 L 8.578125 -4.75 Z M 16.671875 -4.75 "/></g></g></g><g fill="#ffffff" fill-opacity="1"><g transform="translate(177.376742, 296.35579)"><g><path d="M 12.921875 0.125 C 12.285156 0.0390625 10.65625 0 8.03125 0 L 7.390625 0 L 7.390625 -21.921875 L 3.46875 -21.921875 C 2.300781 -21.921875 1.613281 -21.859375 1.40625 -21.734375 C 1.195312 -21.617188 1.03125 -21.515625 0.90625 -21.421875 L 0.859375 -21.453125 L 0.859375 -26.515625 L 0.90625 -26.578125 C 1.34375 -26.429688 2.519531 -26.359375 4.4375 -26.359375 L 16.875 -26.359375 C 18.03125 -26.359375 18.710938 -26.414062 18.921875 -26.53125 C 19.140625 -26.65625 19.304688 -26.765625 19.421875 -26.859375 L 19.484375 -26.84375 L 19.484375 -21.765625 L 19.421875 -21.703125 C 18.984375 -21.847656 17.804688 -21.921875 15.890625 -21.921875 L 12.921875 -21.921875 Z M 12.921875 0.125 "/></g></g></g><g fill="#ffffff" fill-opacity="1"><g transform="translate(197.712386, 296.35579)"><g><path d="M 16.671875 -4.75 C 17.492188 -4.75 18.0625 -4.832031 18.375 -5 L 18.453125 -4.96875 L 18.25 0 L 3.40625 0 L 3.40625 -26.5 C 3.757812 -26.476562 4.15625 -26.457031 4.59375 -26.4375 L 5.984375 -26.40625 C 6.910156 -26.375 7.914062 -26.359375 9 -26.359375 C 12.019531 -26.359375 15.015625 -26.410156 17.984375 -26.515625 C 17.835938 -25.359375 17.765625 -23.804688 17.765625 -21.859375 C 17.765625 -21.648438 17.773438 -21.492188 17.796875 -21.390625 L 17.765625 -21.328125 C 17.078125 -21.523438 16.097656 -21.625 14.828125 -21.625 L 8.578125 -21.625 L 8.578125 -16.578125 L 13.28125 -16.578125 C 14.726562 -16.578125 15.597656 -16.613281 15.890625 -16.6875 L 15.953125 -11.796875 C 15.316406 -11.859375 14.5 -11.890625 13.5 -11.890625 L 8.578125 -11.890625 L 8.578125 -4.75 Z M 16.671875 -4.75 "/></g></g></g><g fill="#ffffff" fill-opacity="1"><g transform="translate(218.048031, 296.35579)"><g><path d="M 15.21875 -26.859375 C 17.6875 -26.859375 19.796875 -26.425781 21.546875 -25.5625 L 21.546875 -19.5 L 21.5 -19.46875 C 20.757812 -20.601562 19.203125 -21.351562 16.828125 -21.71875 C 16.128906 -21.84375 15.242188 -21.90625 14.171875 -21.90625 C 13.097656 -21.90625 12.046875 -21.703125 11.015625 -21.296875 C 9.984375 -20.890625 9.140625 -20.316406 8.484375 -19.578125 C 7.203125 -18.140625 6.5625 -16.085938 6.5625 -13.421875 C 6.5625 -10.316406 7.375 -8.003906 9 -6.484375 C 10.34375 -5.210938 12.125 -4.578125 14.34375 -4.578125 C 16.851562 -4.578125 18.890625 -5.113281 20.453125 -6.1875 C 21.023438 -6.570312 21.507812 -7.046875 21.90625 -7.609375 L 21.96875 -7.578125 L 21.96875 -2.015625 C 19.9375 -0.335938 17.210938 0.5 13.796875 0.5 C 9.765625 0.5 6.609375 -0.78125 4.328125 -3.34375 C 2.128906 -5.789062 1.03125 -9.03125 1.03125 -13.0625 C 1.03125 -17.332031 2.234375 -20.695312 4.640625 -23.15625 C 7.066406 -25.625 10.59375 -26.859375 15.21875 -26.859375 Z M 15.21875 -26.859375 "/></g></g></g><g fill="#ffffff" fill-opacity="1"><g transform="translate(241.594567, 296.35579)"><g><path d="M 12.921875 0.125 C 12.285156 0.0390625 10.65625 0 8.03125 0 L 7.390625 0 L 7.390625 -21.921875 L 3.46875 -21.921875 C 2.300781 -21.921875 1.613281 -21.859375 1.40625 -21.734375 C 1.195312 -21.617188 1.03125 -21.515625 0.90625 -21.421875 L 0.859375 -21.453125 L 0.859375 -26.515625 L 0.90625 -26.578125 C 1.34375 -26.429688 2.519531 -26.359375 4.4375 -26.359375 L 16.875 -26.359375 C 18.03125 -26.359375 18.710938 -26.414062 18.921875 -26.53125 C 19.140625 -26.65625 19.304688 -26.765625 19.421875 -26.859375 L 19.484375 -26.84375 L 19.484375 -21.765625 L 19.421875 -21.703125 C 18.984375 -21.847656 17.804688 -21.921875 15.890625 -21.921875 L 12.921875 -21.921875 Z M 12.921875 0.125 "/></g></g></g><g fill="#ffffff" fill-opacity="1"><g transform="translate(261.930212, 296.35579)"><g><path d="M 4.03125 -26.4375 C 5.34375 -26.382812 6.140625 -26.359375 6.421875 -26.359375 L 7.84375 -26.359375 C 8.550781 -26.359375 9.113281 -26.410156 9.53125 -26.515625 L 9.515625 0 L 4.03125 0 Z M 4.03125 -26.4375 "/></g></g></g><g fill="#ffffff" fill-opacity="1"><g transform="translate(275.487309, 296.35579)"><g><path d="M 5.5625 -3.125 C 4.363281 -4.28125 3.414062 -5.660156 2.71875 -7.265625 C 2.03125 -8.878906 1.6875 -10.644531 1.6875 -12.5625 C 1.6875 -14.488281 2.007812 -16.3125 2.65625 -18.03125 C 3.300781 -19.75 4.222656 -21.257812 5.421875 -22.5625 C 6.628906 -23.875 8.082031 -24.914062 9.78125 -25.6875 C 11.488281 -26.46875 13.398438 -26.859375 15.515625 -26.859375 C 19.160156 -26.859375 22.234375 -25.707031 24.734375 -23.40625 C 27.398438 -20.945312 28.734375 -17.628906 28.734375 -13.453125 C 28.734375 -9.410156 27.363281 -6.050781 24.625 -3.375 C 22.925781 -1.71875 20.910156 -0.578125 18.578125 0.046875 C 17.421875 0.347656 16.070312 0.5 14.53125 0.5 C 13 0.5 11.421875 0.179688 9.796875 -0.453125 C 8.179688 -1.085938 6.769531 -1.976562 5.5625 -3.125 Z M 7.1875 -12.84375 C 7.1875 -11.613281 7.390625 -10.484375 7.796875 -9.453125 C 8.210938 -8.421875 8.785156 -7.535156 9.515625 -6.796875 C 11.054688 -5.234375 13.046875 -4.453125 15.484375 -4.453125 C 17.796875 -4.453125 19.648438 -5.203125 21.046875 -6.703125 C 22.472656 -8.242188 23.1875 -10.347656 23.1875 -13.015625 C 23.1875 -15.523438 22.507812 -17.625 21.15625 -19.3125 C 19.6875 -21.101562 17.675781 -22 15.125 -22 C 12.65625 -22 10.691406 -21.085938 9.234375 -19.265625 C 7.867188 -17.554688 7.1875 -15.414062 7.1875 -12.84375 Z M 7.1875 -12.84375 "/></g></g></g><g fill="#ffffff" fill-opacity="1"><g transform="translate(305.911496, 296.35579)"><g><path d="M 3.59375 0 C 3.664062 -0.445312 3.703125 -0.9375 3.703125 -1.46875 L 3.703125 -26.359375 L 7.671875 -26.359375 L 18.171875 -9.828125 L 18.171875 -25.015625 C 18.171875 -25.742188 18.109375 -26.191406 17.984375 -26.359375 L 23.328125 -26.359375 C 23.265625 -25.828125 23.234375 -25.25 23.234375 -24.625 L 23.234375 0 L 19.109375 0 L 8.765625 -15.875 L 8.765625 0 Z M 3.59375 0 "/></g></g></g><g fill="#ffffff" fill-opacity="1"><g transform="translate(134.365468, 312.804651)"><g><path d="M 2.015625 0 L 2.015625 -9 L 0.171875 -9 L 0.171875 -10.015625 L 4.96875 -10.015625 L 4.96875 -9 L 3.125 -9 L 3.125 0 Z M 2.015625 0 "/></g></g></g><g fill="#ffffff" fill-opacity="1"><g transform="translate(145.248273, 312.804651)"><g><path d="M 4.140625 -5.578125 L 4.140625 -4.578125 L 1.6875 -4.578125 L 1.6875 -1.015625 L 4.6875 -1.015625 L 4.6875 0 L 0.578125 0 L 0.578125 -10.015625 L 4.6875 -10.015625 L 4.6875 -9 L 1.6875 -9 L 1.6875 -5.578125 Z M 4.140625 -5.578125 "/></g></g></g><g fill="#ffffff" fill-opacity="1"><g transform="translate(156.131078, 312.804651)"><g><path d="M 2.734375 -10.125 C 3.503906 -10.125 4.070312 -9.894531 4.4375 -9.4375 C 4.8125 -8.976562 5 -8.363281 5 -7.59375 L 5 -6.703125 L 3.9375 -6.703125 L 3.9375 -7.65625 C 3.9375 -8.113281 3.84375 -8.46875 3.65625 -8.71875 C 3.46875 -8.976562 3.171875 -9.109375 2.765625 -9.109375 C 2.359375 -9.109375 2.0625 -8.976562 1.875 -8.71875 C 1.6875 -8.46875 1.59375 -8.113281 1.59375 -7.65625 L 1.59375 -2.359375 C 1.59375 -1.898438 1.6875 -1.546875 1.875 -1.296875 C 2.0625 -1.046875 2.359375 -0.921875 2.765625 -0.921875 C 3.171875 -0.921875 3.46875 -1.046875 3.65625 -1.296875 C 3.84375 -1.546875 3.9375 -1.898438 3.9375 -2.359375 L 3.9375 -3.65625 L 5 -3.65625 L 5 -2.421875 C 5 -1.660156 4.8125 -1.050781 4.4375 -0.59375 C 4.070312 -0.132812 3.503906 0.09375 2.734375 0.09375 C 1.972656 0.09375 1.40625 -0.132812 1.03125 -0.59375 C 0.664062 -1.050781 0.484375 -1.660156 0.484375 -2.421875 L 0.484375 -7.59375 C 0.484375 -7.976562 0.53125 -8.328125 0.625 -8.640625 C 0.71875 -8.953125 0.851562 -9.21875 1.03125 -9.4375 C 1.21875 -9.65625 1.453125 -9.820312 1.734375 -9.9375 C 2.015625 -10.0625 2.347656 -10.125 2.734375 -10.125 Z M 2.734375 -10.125 "/></g></g></g><g fill="#ffffff" fill-opacity="1"><g transform="translate(167.300158, 312.804651)"><g><path d="M 1.6875 -4.515625 L 1.6875 0 L 0.578125 0 L 0.578125 -10.015625 L 1.6875 -10.015625 L 1.6875 -5.515625 L 4.15625 -5.515625 L 4.15625 -10.015625 L 5.265625 -10.015625 L 5.265625 0 L 4.15625 0 L 4.15625 -4.515625 Z M 1.6875 -4.515625 "/></g></g></g><g fill="#ffffff" fill-opacity="1"><g transform="translate(178.87003, 312.804651)"><g><path d="M 1.5625 0 L 0.5625 0 L 0.5625 -10.015625 L 1.96875 -10.015625 L 4.296875 -2.78125 L 4.296875 -10.015625 L 5.28125 -10.015625 L 5.28125 0 L 4.125 0 L 1.5625 -8.09375 Z M 1.5625 0 "/></g></g></g><g fill="#ffffff" fill-opacity="1"><g transform="translate(190.454223, 312.804651)"><g><path d="M 0.484375 -7.59375 C 0.484375 -8.375 0.671875 -8.988281 1.046875 -9.4375 C 1.429688 -9.894531 2.007812 -10.125 2.78125 -10.125 C 3.550781 -10.125 4.125 -9.894531 4.5 -9.4375 C 4.882812 -8.988281 5.078125 -8.375 5.078125 -7.59375 L 5.078125 -2.421875 C 5.078125 -1.660156 4.882812 -1.050781 4.5 -0.59375 C 4.125 -0.132812 3.550781 0.09375 2.78125 0.09375 C 2.007812 0.09375 1.429688 -0.132812 1.046875 -0.59375 C 0.671875 -1.050781 0.484375 -1.660156 0.484375 -2.421875 Z M 1.59375 -2.359375 C 1.59375 -1.898438 1.6875 -1.546875 1.875 -1.296875 C 2.070312 -1.046875 2.375 -0.921875 2.78125 -0.921875 C 3.1875 -0.921875 3.484375 -1.046875 3.671875 -1.296875 C 3.867188 -1.546875 3.96875 -1.898438 3.96875 -2.359375 L 3.96875 -7.65625 C 3.96875 -8.113281 3.867188 -8.46875 3.671875 -8.71875 C 3.484375 -8.976562 3.1875 -9.109375 2.78125 -9.109375 C 2.375 -9.109375 2.070312 -8.976562 1.875 -8.71875 C 1.6875 -8.46875 1.59375 -8.113281 1.59375 -7.65625 Z M 1.59375 -2.359375 "/></g></g></g><g fill="#ffffff" fill-opacity="1"><g transform="translate(201.752139, 312.804651)"><g><path d="M 0.578125 0 L 0.578125 -10.015625 L 1.6875 -10.015625 L 1.6875 -1.015625 L 4.546875 -1.015625 L 4.546875 0 Z M 0.578125 0 "/></g></g></g><g fill="#ffffff" fill-opacity="1"><g transform="translate(212.30572, 312.804651)"><g><path d="M 0.484375 -7.59375 C 0.484375 -8.375 0.671875 -8.988281 1.046875 -9.4375 C 1.429688 -9.894531 2.007812 -10.125 2.78125 -10.125 C 3.550781 -10.125 4.125 -9.894531 4.5 -9.4375 C 4.882812 -8.988281 5.078125 -8.375 5.078125 -7.59375 L 5.078125 -2.421875 C 5.078125 -1.660156 4.882812 -1.050781 4.5 -0.59375 C 4.125 -0.132812 3.550781 0.09375 2.78125 0.09375 C 2.007812 0.09375 1.429688 -0.132812 1.046875 -0.59375 C 0.671875 -1.050781 0.484375 -1.660156 0.484375 -2.421875 Z M 1.59375 -2.359375 C 1.59375 -1.898438 1.6875 -1.546875 1.875 -1.296875 C 2.070312 -1.046875 2.375 -0.921875 2.78125 -0.921875 C 3.1875 -0.921875 3.484375 -1.046875 3.671875 -1.296875 C 3.867188 -1.546875 3.96875 -1.898438 3.96875 -2.359375 L 3.96875 -7.65625 C 3.96875 -8.113281 3.867188 -8.46875 3.671875 -8.71875 C 3.484375 -8.976562 3.1875 -9.109375 2.78125 -9.109375 C 2.375 -9.109375 2.070312 -8.976562 1.875 -8.71875 C 1.6875 -8.46875 1.59375 -8.113281 1.59375 -7.65625 Z M 1.59375 -2.359375 "/></g></g></g><g fill="#ffffff" fill-opacity="1"><g transform="translate(223.603636, 312.804651)"><g><path d="M 2.734375 -10.125 C 3.503906 -10.125 4.070312 -9.894531 4.4375 -9.4375 C 4.8125 -8.976562 5 -8.363281 5 -7.59375 L 5 -6.734375 L 3.9375 -6.734375 L 3.9375 -7.65625 C 3.9375 -8.113281 3.84375 -8.46875 3.65625 -8.71875 C 3.46875 -8.976562 3.171875 -9.109375 2.765625 -9.109375 C 2.359375 -9.109375 2.0625 -8.976562 1.875 -8.71875 C 1.6875 -8.46875 1.59375 -8.113281 1.59375 -7.65625 L 1.59375 -2.359375 C 1.59375 -1.898438 1.6875 -1.546875 1.875 -1.296875 C 2.0625 -1.046875 2.359375 -0.921875 2.765625 -0.921875 C 3.171875 -0.921875 3.46875 -1.046875 3.65625 -1.296875 C 3.84375 -1.546875 3.9375 -1.898438 3.9375 -2.359375 L 3.9375 -4.359375 L 2.90625 -4.359375 L 2.90625 -5.375 L 5 -5.375 L 5 -2.421875 C 5 -1.660156 4.8125 -1.050781 4.4375 -0.59375 C 4.070312 -0.132812 3.503906 0.09375 2.734375 0.09375 C 1.972656 0.09375 1.40625 -0.132812 1.03125 -0.59375 C 0.664062 -1.050781 0.484375 -1.660156 0.484375 -2.421875 L 0.484375 -7.59375 C 0.484375 -7.976562 0.53125 -8.328125 0.625 -8.640625 C 0.71875 -8.953125 0.851562 -9.21875 1.03125 -9.4375 C 1.21875 -9.65625 1.453125 -9.820312 1.734375 -9.9375 C 2.015625 -10.0625 2.347656 -10.125 2.734375 -10.125 Z M 2.734375 -10.125 "/></g></g></g><g fill="#ffffff" fill-opacity="1"><g transform="translate(234.815654, 312.804651)"><g><path d="M 2.34375 -3.59375 L 0.234375 -10.015625 L 1.390625 -10.015625 L 2.953125 -5.09375 L 4.515625 -10.015625 L 5.578125 -10.015625 L 3.453125 -3.59375 L 3.453125 0 L 2.34375 0 Z M 2.34375 -3.59375 "/></g></g></g></svg>